<svg width="24" height="24" viewBox="0 0 24 24" fill="none" xmlns="http://www.w3.org/2000/svg">
<g clip-path="url(#clip0_15733_42847)">
<path d="M22.2402 1.82812H1.75586C0.786484 1.82812 -0.00195312 2.61703 -0.00195312 3.58594V20.4178C-0.00195312 21.3872 0.786484 22.1756 1.75586 22.1756H22.2402C23.2096 22.1756 23.998 21.3872 23.998 20.4178V3.58594C23.998 2.61656 23.2096 1.82812 22.2402 1.82812ZM0.701172 3.58594C0.701172 3.00422 1.17414 2.53125 1.75586 2.53125H22.2402C22.822 2.53125 23.2949 3.00422 23.2949 3.58594V5.22234H0.701172V3.58594ZM22.2402 21.4725H1.75586C1.17414 21.4725 0.701172 20.9995 0.701172 20.4178V5.92547H23.2949V20.4178C23.2949 20.9995 22.822 21.4725 22.2402 21.4725Z" fill="black"/>
<path d="M2.69844 3.52344H2.43359C2.23953 3.52344 2.08203 3.68094 2.08203 3.875C2.08203 4.06906 2.23953 4.22656 2.43359 4.22656H2.69844C2.8925 4.22656 3.05 4.06906 3.05 3.875C3.05 3.68094 2.8925 3.52344 2.69844 3.52344ZM4.56594 3.52344H4.30109C4.10703 3.52344 3.94953 3.68094 3.94953 3.875C3.94953 4.06906 4.10703 4.22656 4.30109 4.22656H4.56594C4.76 4.22656 4.9175 4.06906 4.9175 3.875C4.9175 3.68094 4.76 3.52344 4.56594 3.52344ZM6.43344 3.52344H6.16859C5.97453 3.52344 5.81703 3.68094 5.81703 3.875C5.81703 4.06906 5.97453 4.22656 6.16859 4.22656H6.43344C6.6275 4.22656 6.785 4.06906 6.785 3.875C6.785 3.68094 6.6275 3.52344 6.43344 3.52344ZM18.0411 7.97047H5.95484C5.34078 7.97047 4.84156 8.46969 4.84156 9.08375V18.117C4.84156 18.7311 5.34078 19.2303 5.95484 19.2303H18.0411C18.6552 19.2303 19.1544 18.7311 19.1544 18.117V9.08375C19.1544 8.46969 18.6552 7.97047 18.0411 7.97047ZM18.4513 18.117C18.4513 18.3434 18.267 18.5272 18.0411 18.5272H5.95484C5.72891 18.5272 5.54469 18.343 5.54469 18.117V9.08375C5.54469 8.85734 5.72891 8.67359 5.95484 8.67359H18.0411C18.2675 8.67359 18.4513 8.85781 18.4513 9.08375V18.117Z" fill="black"/>
<path d="M10.0022 11.473C10.0008 11.4697 9.9999 11.4664 9.9985 11.4631C9.96515 11.3815 9.90823 11.3117 9.835 11.2626C9.76177 11.2135 9.67557 11.1873 9.5874 11.1875H9.58693C9.40553 11.1875 9.24428 11.2963 9.17584 11.4641C9.1749 11.4669 9.1735 11.4692 9.17256 11.472L7.6285 15.5258C7.55959 15.7072 7.65053 15.9102 7.83193 15.9795C8.01334 16.0489 8.21631 15.9575 8.28568 15.7761L8.58381 14.9928H10.5793L10.8746 15.7752C10.9276 15.9158 11.0616 16.0025 11.2037 16.0025C11.2449 16.0025 11.2866 15.995 11.3279 15.98C11.5097 15.9116 11.6012 15.7086 11.5327 15.5267L10.0027 11.4725L10.0022 11.473ZM8.85146 14.2902L9.586 12.3617L10.314 14.2902H8.85146ZM14.4282 11.2484H13.298C13.2047 11.2484 13.1152 11.2855 13.0491 11.3516C12.983 11.4177 12.946 11.5072 12.9465 11.6005C12.9465 11.6005 12.9493 13.1356 12.9493 13.5903C12.9493 14.1388 12.9544 15.5764 12.9544 15.5909C12.9544 15.6842 12.9919 15.7733 13.0585 15.8394C13.1242 15.9048 13.2132 15.9416 13.306 15.9416H13.3074C13.3416 15.9416 14.1465 15.9383 14.4671 15.9327C15.0357 15.9228 15.5415 15.6655 15.8921 15.208C16.2137 14.7884 16.3908 14.2156 16.3908 13.595C16.3908 12.1916 15.6019 11.2484 14.4277 11.2484H14.4282ZM14.4549 15.23C14.273 15.2333 13.9229 15.2356 13.6562 15.237C13.6547 14.7725 13.6524 13.9691 13.6524 13.5908C13.6524 13.2739 13.651 12.4334 13.6501 11.9516H14.4282C15.3572 11.9516 15.6882 12.8005 15.6882 13.595C15.6882 14.3895 15.3024 15.215 14.4554 15.23H14.4549Z" fill="black"/>
</g>
<defs>
<clipPath id="clip0_15733_42847">
<rect width="24" height="24" fill="white"/>
</clipPath>
</defs>
</svg>
